<?xml version="1.0" encoding="UTF-8" standalone="no"?>
<!-- Created with Inkscape (http://www.inkscape.org/) -->

<svg
   xmlns:dc="http://purl.org/dc/elements/1.1/"
   xmlns:cc="http://creativecommons.org/ns#"
   xmlns:rdf="http://www.w3.org/1999/02/22-rdf-syntax-ns#"
   xmlns:svg="http://www.w3.org/2000/svg"
   xmlns="http://www.w3.org/2000/svg"
   xmlns:sodipodi="http://sodipodi.sourceforge.net/DTD/sodipodi-0.dtd"
   xmlns:inkscape="http://www.inkscape.org/namespaces/inkscape"
   width="121.86708mm"
   height="18.061117mm"
   viewBox="0 0 431.81249 63.996084"
   id="svg2"
   version="1.1"
   inkscape:version="0.91 r13725"
   sodipodi:docname="titulo.svg">
  <defs
     id="defs4">
    <filter
       style="color-interpolation-filters:sRGB"
       inkscape:label="Drop Shadow"
       id="filter4323">
      <feFlood
         flood-opacity="0.498039"
         flood-color="rgb(0,0,0)"
         result="flood"
         id="feFlood4325" />
      <feComposite
         in="flood"
         in2="SourceGraphic"
         operator="in"
         result="composite1"
         id="feComposite4327" />
      <feGaussianBlur
         in="composite1"
         stdDeviation="1"
         result="blur"
         id="feGaussianBlur4329" />
      <feOffset
         dx="6"
         dy="6"
         result="offset"
         id="feOffset4331" />
      <feComposite
         in="SourceGraphic"
         in2="offset"
         operator="over"
         result="fbSourceGraphic"
         id="feComposite4333" />
      <feColorMatrix
         result="fbSourceGraphicAlpha"
         in="fbSourceGraphic"
         values="0 0 0 -1 0 0 0 0 -1 0 0 0 0 -1 0 0 0 0 1 0"
         id="feColorMatrix4335" />
      <feFlood
         id="feFlood4337"
         flood-opacity="0.498039"
         flood-color="rgb(0,0,0)"
         result="flood"
         in="fbSourceGraphic" />
      <feComposite
         id="feComposite4339"
         in2="fbSourceGraphic"
         in="flood"
         operator="in"
         result="composite1" />
      <feGaussianBlur
         id="feGaussianBlur4341"
         in="composite1"
         stdDeviation="1"
         result="blur" />
      <feOffset
         id="feOffset4343"
         dx="6"
         dy="6"
         result="offset" />
      <feComposite
         id="feComposite4345"
         in2="offset"
         in="fbSourceGraphic"
         operator="over"
         result="composite2" />
    </filter>
  </defs>
  <sodipodi:namedview
     id="base"
     pagecolor="#ffffff"
     bordercolor="#666666"
     borderopacity="1.0"
     inkscape:pageopacity="0.0"
     inkscape:pageshadow="2"
     inkscape:zoom="0.7"
     inkscape:cx="315.56759"
     inkscape:cy="-154.66699"
     inkscape:document-units="px"
     inkscape:current-layer="layer1"
     showgrid="false"
     inkscape:window-width="1366"
     inkscape:window-height="705"
     inkscape:window-x="-8"
     inkscape:window-y="-8"
     inkscape:window-maximized="1"
     fit-margin-top="0"
     fit-margin-left="0"
     fit-margin-right="0"
     fit-margin-bottom="0" />
  <metadata
     id="metadata7">
    <rdf:RDF>
      <cc:Work
         rdf:about="">
        <dc:format>image/svg+xml</dc:format>
        <dc:type
           rdf:resource="http://purl.org/dc/dcmitype/StillImage" />
        <dc:title></dc:title>
      </cc:Work>
    </rdf:RDF>
  </metadata>
  <g
     inkscape:label="Capa 1"
     inkscape:groupmode="layer"
     id="layer1"
     transform="translate(-55.444199,-313.69913)">
    <g
       style="font-style:normal;font-variant:normal;font-weight:normal;font-stretch:normal;font-size:40px;line-height:125%;font-family:'8-bit pusab';-inkscape-font-specification:'8-bit pusab, Normal';text-align:start;letter-spacing:0px;word-spacing:0px;writing-mode:lr-tb;text-anchor:start;fill:#bcf01e;fill-opacity:1;stroke:#2b2e83;stroke-width:3.5;stroke-linecap:butt;stroke-linejoin:miter;stroke-miterlimit:4;stroke-dasharray:none;stroke-opacity:1;filter:url(#filter4323)"
       id="text4136">
      <path
         d="m 118.08873,352.36221 0,-13.33007 -13.33008,0 0,13.33007 13.33008,0 z m -20,20 0,-13.33007 -6.660156,0 0,-6.66993 6.660156,0 0,-13.33007 -6.660156,0 0,-6.66993 6.660156,0 0,-13.33007 6.66992,0 0,13.33007 13.33008,0 0,-13.33007 6.66992,0 0,13.33007 6.66992,0 0,6.66993 -6.66992,0 0,13.33007 6.66992,0 0,6.66993 -6.66992,0 0,13.33007 -6.66992,0 0,-13.33007 -13.33008,0 0,13.33007 -6.66992,0 z"
         id="path4141"
         style="fill:#bcf01e;fill-opacity:1;stroke:#2b2e83;stroke-width:3.5;stroke-miterlimit:4;stroke-dasharray:none;stroke-opacity:1"
         inkscape:connector-curvature="0" />
      <path
         d="m 191.39928,372.36221 0,-13.33007 6.66992,0 0,13.33007 -6.66992,0 z m 0,-20 0,-20 6.66992,0 0,20 -6.66992,0 z m -33.33008,20 0,-46.66015 33.33008,0 0,6.66015 -20,0 0,20 20,0 0,6.66993 -20,0 0,13.33007 -13.33008,0 z"
         id="path4143"
         style="fill:#bcf01e;fill-opacity:1;stroke:#2b2e83;stroke-width:3.5;stroke-miterlimit:4;stroke-dasharray:none;stroke-opacity:1"
         inkscape:connector-curvature="0" />
      <path
         d="m 204.70982,372.36221 0,-46.66015 40,0 0,6.66015 -26.66992,0 0,13.33985 13.33008,0 0,6.66015 -13.33008,0 0,13.33985 26.66992,0 0,6.66015 -40,0 z"
         id="path4145"
         style="fill:#bcf01e;fill-opacity:1;stroke:#2b2e83;stroke-width:3.5;stroke-miterlimit:4;stroke-dasharray:none;stroke-opacity:1"
         inkscape:connector-curvature="0" />
      <path
         d="m 284.68053,365.70206 0,-33.33985 6.66992,0 0,33.33985 -6.66992,0 z m -33.33008,6.66015 0,-46.66015 33.33008,0 0,6.66015 -20,0 0,33.33985 20,0 0,6.66015 -33.33008,0 z"
         id="path4147"
         style="fill:#bcf01e;fill-opacity:1;stroke:#2b2e83;stroke-width:3.5;stroke-miterlimit:4;stroke-dasharray:none;stroke-opacity:1"
         inkscape:connector-curvature="0" />
      <path
         d="m 297.99107,372.36221 0,-46.66015 40,0 0,6.66015 -26.66992,0 0,13.33985 13.33008,0 0,6.66015 -13.33008,0 0,13.33985 26.66992,0 0,6.66015 -40,0 z"
         id="path4149"
         style="fill:#bcf01e;fill-opacity:1;stroke:#2b2e83;stroke-width:3.5;stroke-miterlimit:4;stroke-dasharray:none;stroke-opacity:1"
         inkscape:connector-curvature="0" />
      <path
         d="m 344.6317,372.36221 0,-6.66015 33.33008,0 0,6.66015 -33.33008,0 z m 33.33008,-6.66015 0,-13.33985 6.66992,0 0,13.33985 -6.66992,0 z m -26.66993,-13.33985 0,-6.66015 -6.66015,0 0,-13.33985 6.66015,0 0,-6.66015 33.33985,0 0,6.66015 -26.66992,0 0,13.33985 20,0 0,6.66015 -26.66993,0 z"
         id="path4151"
         style="fill:#bcf01e;fill-opacity:1;stroke:#2b2e83;stroke-width:3.5;stroke-miterlimit:4;stroke-dasharray:none;stroke-opacity:1"
         inkscape:connector-curvature="0" />
      <path
         d="m 437.93248,352.36221 0,-13.33007 -13.33008,0 0,13.33007 13.33008,0 z m -20,20 0,-13.33007 -6.66016,0 0,-6.66993 6.66016,0 0,-13.33007 -6.66016,0 0,-6.66993 6.66016,0 0,-13.33007 6.66992,0 0,13.33007 13.33008,0 0,-13.33007 6.66992,0 0,13.33007 6.66992,0 0,6.66993 -6.66992,0 0,13.33007 6.66992,0 0,6.66993 -6.66992,0 0,13.33007 -6.66992,0 0,-13.33007 -13.33008,0 0,13.33007 -6.66992,0 z"
         id="path4153"
         style="fill:#bcf01e;fill-opacity:1;stroke:#2b2e83;stroke-width:3.5;stroke-miterlimit:4;stroke-dasharray:none;stroke-opacity:1"
         inkscape:connector-curvature="0" />
    </g>
  </g>
</svg>
